<?xml version="1.0" standalone="no"?>
<!DOCTYPE svg PUBLIC "-//W3C//DTD SVG 20010904//EN"
 "http://www.w3.org/TR/2001/REC-SVG-20010904/DTD/svg10.dtd">
<svg version="1.0" xmlns="http://www.w3.org/2000/svg"
 width="500.000000pt" height="500.000000pt" viewBox="0 0 500.000000 500.000000"
 preserveAspectRatio="xMidYMid meet">
<metadata>
Created by potrace 1.14, written by Peter Selinger 2001-2017
</metadata>
<g transform="translate(0.000000,500.000000) scale(0.100000,-0.100000)"
fill="#000000" stroke="none">
<path d="M910 4580 c-216 -58 -363 -181 -452 -377 -61 -135 -58 -59 -55 -1725
1 -838 5 -1532 9 -1543 3 -11 11 -40 18 -65 24 -90 87 -195 164 -272 84 -86
182 -141 313 -178 66 -19 117 -19 1613 -17 l1545 2 63 22 c247 87 409 268 457
508 14 71 15 246 13 1595 -2 833 -7 1528 -11 1543 -52 191 -140 318 -289 417
-72 47 -169 87 -245 99 -36 6 -643 10 -1568 9 -1411 0 -1514 -1 -1575 -18z"/>
</g>
</svg>
